HIERARCHY
ROOT Hips
{
	OFFSET 0.000000 0.000000 0.000000
	CHANNELS 6 Xposition Yposition Zposition Zrotation Yrotation Xrotation 
	JOINT LHipJoint
	{
		OFFSET 0.000000 0.000000 0.000000
		CHANNELS 3 Zrotation Yrotation Xrotation
		JOINT LeftUpLeg
		{
			OFFSET 1.363060 -1.794630 0.839290
			CHANNELS 3 Zrotation Yrotation Xrotation
			JOINT LeftLeg
			{
				OFFSET 2.448110 -6.726130 0.000000
				CHANNELS 3 Zrotation Yrotation Xrotation
				JOINT LeftFoot
				{
					OFFSET 2.562200 -7.039590 0.000000
					CHANNELS 3 Zrotation Yrotation Xrotation
					JOINT LeftToeBase
					{
						OFFSET 0.157640 -0.433110 2.322550
						CHANNELS 3 Zrotation Yrotation Xrotation
						End Site
						{
							OFFSET 0.000000 0.000000 0.000000
						}
					}
				}
			}
		}
	}
	JOINT RHipJoint
	{
		OFFSET 0.000000 0.000000 0.000000
		CHANNELS 3 Zrotation Yrotation Xrotation
		JOINT RightUpLeg
		{
			OFFSET -1.305520 -1.794630 0.839290
			CHANNELS 3 Zrotation Yrotation Xrotation
			JOINT RightLeg
			{
				OFFSET -2.542530 -6.985550 0.000000
				CHANNELS 3 Zrotation Yrotation Xrotation
				JOINT RightFoot
				{
					OFFSET -2.568260 -7.056230 0.000000
					CHANNELS 3 Zrotation Yrotation Xrotation
					JOINT RightToeBase
					{
						OFFSET -0.164730 -0.452590 2.363150
						CHANNELS 3 Zrotation Yrotation Xrotation
						End Site
						{
							OFFSET 0.000000 0.000000 0.000000
						}
					}
				}
			}
		}
	}
	JOINT LowerBack
	{
		OFFSET 0.000000 0.000000 0.000000
		CHANNELS 3 Zrotation Yrotation Xrotation
		JOINT Spine
		{
			OFFSET 0.028270 2.035590 -0.193380
			CHANNELS 3 Zrotation Yrotation Xrotation
			JOINT Spine1
			{
				OFFSET 0.056720 2.048850 -0.042750
				CHANNELS 3 Zrotation Yrotation Xrotation
				JOINT Neck
				{
					OFFSET 0.000000 0.000000 0.000000
					CHANNELS 3 Zrotation Yrotation Xrotation
					JOINT Neck1
					{
						OFFSET -0.054170 1.746240 0.172020
						CHANNELS 3 Zrotation Yrotation Xrotation
						JOINT Head
						{
							OFFSET 0.104070 1.761360 -0.123970
							CHANNELS 3 Zrotation Yrotation Xrotation
							End Site
							{
								OFFSET 0.000000 0.000000 0.000000
							}
						}
					}
				}
				JOINT LeftShoulder
				{
					OFFSET 0.000000 0.000000 0.000000
					CHANNELS 3 Zrotation Yrotation Xrotation
					JOINT LeftArm
					{
						OFFSET 3.362410 1.200890 -0.311210
						CHANNELS 3 Zrotation Yrotation Xrotation
						JOINT LeftForeArm
						{
							OFFSET 4.983000 -0.000000 -0.000000
							CHANNELS 3 Zrotation Yrotation Xrotation
							JOINT LeftHand
							{
								OFFSET 3.483560 -0.000000 -0.000000
								CHANNELS 3 Zrotation Yrotation Xrotation
								JOINT LeftFingerBase
								{
									OFFSET 0.000000 0.000000 0.000000
									CHANNELS 3 Zrotation Yrotation Xrotation
									JOINT LeftHandIndex1
									{
										OFFSET 0.715260 -0.000000 -0.000000
										CHANNELS 3 Zrotation Yrotation Xrotation
										End Site
										{
											OFFSET 0.000000 0.000000 0.000000
										}
									}
								}
								JOINT LThumb
								{
									OFFSET 0.000000 0.000000 0.000000
									CHANNELS 3 Zrotation Yrotation Xrotation
									End Site
									{
										OFFSET 0.000000 0.000000 0.000000
									}
								}
							}
						}
					}
				}
				JOINT RightShoulder
				{
					OFFSET 0.000000 0.000000 0.000000
					CHANNELS 3 Zrotation Yrotation Xrotation
					JOINT RightArm
					{
						OFFSET -3.136600 1.374050 -0.404650
						CHANNELS 3 Zrotation Yrotation Xrotation
						JOINT RightForeArm
						{
							OFFSET -5.241900 -0.000000 -0.000000
							CHANNELS 3 Zrotation Yrotation Xrotation
							JOINT RightHand
							{
								OFFSET -3.444170 -0.000000 -0.000000
								CHANNELS 3 Zrotation Yrotation Xrotation
								JOINT RightFingerBase
								{
									OFFSET 0.000000 0.000000 0.000000
									CHANNELS 3 Zrotation Yrotation Xrotation
									JOINT RightHandIndex1
									{
										OFFSET -0.622530 -0.000000 -0.000000
										CHANNELS 3 Zrotation Yrotation Xrotation
										End Site
										{
											OFFSET 0.000000 0.000000 0.000000
										}
									}
								}
								JOINT RThumb
								{
									OFFSET 0.000000 0.000000 0.000000
									CHANNELS 3 Zrotation Yrotation Xrotation
									End Site
									{
										OFFSET 0.000000 0.000000 0.000000
									}
								}
							}
						}
					}
				}
			}
		}
	}
}
MOTION
Frames: 4
Frame Time: 0.008333
-29.298026 17.493753 -0.119080 -161.659790 66.264722 -150.678639 1.887117 -4.175233 -2.709144 -6.181099 -9.267908 -17.700539 1.727277 11.191656 29.811809 -1.548966 10.335983 -13.904651 0.396900 -4.044900 -11.202900 -6.997410 2.195609 -4.876246 29.169987 -13.180819 0.794106 0.154629 -1.614131 -0.097666 0.908107 -23.704639 -31.781395 -1.962000 -8.786500 25.129600 10.471946 5.580868 -15.784615 0.557942 3.222633 -1.715856 -2.325981 2.035614 9.304023 10.521560 17.191913 -0.600214 -0.720769 22.722911 9.819006 -3.126900 11.656700 9.387100 -7.430246 -2.663533 -0.093500 -76.622612 2.857761 19.190696 9.432844 -24.435581 -3.077355 -0.616140 0.057918 -3.922711 24.288937 -10.978857 -5.077100 -7.125000 0.000000 0.000000 -1.546800 17.848900 0.998600 11.464323 1.289316 -0.491424 70.539090 0.353904 24.703723 -8.743151 21.239802 -2.709877 1.253598 0.395290 -2.262325 -7.130923 -27.916277 3.985400 7.125000 0.000000 0.000000 24.141100 -56.739600 -7.237100 
-29.296867 17.503553 -0.112441 -161.443065 66.305478 -150.166232 1.909192 -4.173446 -2.725918 -6.043409 -9.050812 -18.099366 1.733297 11.181857 29.807419 -1.622539 10.619750 -13.937063 0.480500 -4.445000 -12.332200 -7.000347 2.175640 -4.830781 29.355260 -12.909018 0.427334 0.152315 -1.625726 -0.101081 0.975292 -23.953271 -31.629229 -1.882600 -8.617000 24.604500 10.448448 5.979823 -16.101198 0.428502 3.759373 -1.794293 -2.563928 2.289411 9.189862 10.963390 16.810953 -0.616797 -0.567971 22.117870 9.835491 -3.206700 11.418700 9.358100 -7.470119 -2.680325 -0.104051 -76.033577 2.956936 20.391501 9.413571 -24.443071 -3.055607 -0.563847 0.067859 -4.097664 22.268724 -12.277815 -5.141800 -7.125000 0.000000 0.000000 -3.060200 16.634900 2.059000 11.405459 1.297536 -0.523446 71.082518 0.015052 23.118957 -8.628190 21.123897 -2.748926 1.275971 0.378881 -1.886768 -7.417116 -29.095728 4.287000 7.125000 0.000000 0.000000 24.688100 -57.853200 -8.091000 
-29.295919 17.508190 -0.108542 -161.302862 66.321216 -149.807013 1.927178 -4.174888 -2.731652 -5.938122 -9.093313 -18.320844 1.732694 11.177843 29.794725 -1.650394 10.726724 -13.940339 0.429400 -4.205200 -11.654700 -6.995293 2.162026 -4.791161 29.475440 -12.724701 0.158295 0.148198 -1.632505 -0.103907 0.982911 -23.989149 -31.618897 -1.880300 -8.612100 24.589200 10.521208 6.460207 -16.305753 0.249151 4.425122 -1.871516 -2.984092 2.603675 9.059014 11.440872 16.386987 -0.745587 -0.345260 21.456444 9.936367 -3.251000 11.160000 9.381900 -7.526382 -2.701534 -0.115643 -75.279902 3.078724 22.016899 9.469790 -24.544437 -3.058937 -0.483313 0.070628 -4.321928 19.277173 -13.705559 -4.888300 -7.125000 0.000000 0.000000 -5.236800 15.417900 3.671700 11.331129 1.314095 -0.565136 71.739409 -0.425302 21.739831 -8.619643 21.122951 -2.768019 1.274851 0.342060 -1.907632 -7.567589 -29.028486 4.346800 7.125000 0.000000 0.000000 24.458600 -57.789400 -7.971400 
-29.294022 17.508928 -0.105696 -161.251249 66.366959 -149.661179 1.942776 -4.162420 -2.686462 -5.920396 -9.106080 -18.478365 1.738119 11.171038 29.799235 -1.672121 10.779041 -13.806533 0.316700 -3.617800 -10.003700 -6.957000 2.146783 -4.705234 29.479388 -12.577643 -0.001020 0.142374 -1.630112 -0.105106 0.958162 -23.906269 -31.673780 -1.923800 -8.705500 24.878400 10.631301 6.983237 -16.475466 -0.102758 5.296456 -2.136443 -4.087968 3.014067 8.057398 13.731347 15.659152 0.994506 -0.502602 20.466878 9.840046 -3.918900 10.949200 9.142200 -7.673255 -2.806578 -0.104595 -73.482270 4.585383 24.273486 9.603508 -24.853623 -3.112274 -0.424016 0.052320 -4.986744 16.301563 -15.203327 -4.521200 -7.125000 0.000000 0.000000 -7.341400 14.169400 5.366000 11.101582 1.310627 -0.664402 73.523211 -2.215793 20.206870 -8.731087 21.333527 -2.813982 1.266896 0.251633 -1.824948 -7.711081 -28.716567 4.358200 7.125000 0.000000 0.000000 24.027300 -57.455600 -7.623100 
